# xmcd
#
# Track frame offsets:
#	150
#	18577
#	33017
#	44475
#	59080
#	73077
#	86507
#	100300
#	116942
#	129325
#
# Disc length: 1891 seconds
#
# Revision: 0
# Processed by: cddbd v1.5.1PL2 Copyright (c) Steve Scherf et al.
# Submitted via: audiograbber 1.83.01
#
DISCID=8c07610a
DTITLE=Gary Stewart - Battleground
DYEAR=1990
DGENRE=Country
TTITLE0=Nothin' But a Woman
TTITLE1=Bedroom Battleground
TTITLE2=Let's Go Jukin'
TTITLE3=Nothing Cheap About a Cheap Affair
TTITLE4=Ol' Hank's Lovesick Blues
TTITLE5=Woman In Demand
TTITLE6=Hey Leona
TTITLE7=You're The Reason I'm Living
TTITLE8=Delia
TTITLE9=Seeing's Believing
EXTD=
EXTT0=
EXTT1=
EXTT2=
EXTT3=
EXTT4=
EXTT5=
EXTT6=
EXTT7=
EXTT8=
EXTT9=
PLAYORDER=
